<?xml version="1.0" encoding="UTF-8"?>
<!-- Generated by Pixelmator Pro 3.3.13 -->
<svg xmlns="http://www.w3.org/2000/svg" width="1200" height="1200" viewBox="0 0 1200 1200">
  <path id="Trazado" fill="#403437" stroke="none" d="M -3.02 0 L 1203.02002 0 L 1203.02002 1200 L -3.02 1200 Z"></path>
  <g id="Agrupar">
    <g id="Rectngulo2">
      <path id="path1" fill="#403437" stroke="none" d="M 42.475075 506.270386 L 1160.54187 366.414551 L 1156.834961 697.492554 L 38.785812 837.366211 Z"></path>
      <path id="path2" fill="#ffffff" stroke="none" d="M 1149.083862 379.256104 L 1145.642944 687.488953 L 50.314835 824.506958 L 53.755806 516.274048 L 1149.172485 379.256104 M 1172 353.608459 L 31.300814 496.302246 L 27.309998 850.207764 L 1168.009155 707.513977 L 1172 353.608459 Z"></path>
    </g>
    <path id="path3" fill="#ffffff" stroke="none" d="M 130.787399 751.927307 L 139.655884 556.59021 C 139.531708 554.905151 140.773315 553.433044 142.458344 553.291077 L 185.842926 547.615295 C 187.776245 547.366943 188.663101 548.236084 188.538925 550.204895 L 181.92308 701.997742 C 181.887573 703.186157 182.348755 703.700562 183.306564 703.576355 L 257.943665 693.821045 C 259.859283 693.572693 260.781586 694.441833 260.639648 696.410645 L 258.93692 735.165894 C 259.061096 736.850891 257.819489 738.323059 256.134491 738.464966 L 133.784943 754.481445 C 131.65654 754.765198 130.663223 753.913818 130.787399 751.927307 Z"></path>
    <path id="path4" fill="#ffffff" stroke="none" d="M 250.068436 739.263062 C 248.135117 739.511475 247.532059 738.606812 248.241531 736.567139 L 322.772247 532.645325 C 323.180176 530.871582 324.634613 529.505859 326.443756 529.222107 L 371.850403 523.280212 C 373.978851 522.996399 375.149506 523.847778 375.415527 525.798828 L 431.056366 712.693115 C 431.694855 714.573303 431.14502 715.619751 429.40683 715.850342 L 384.833862 721.632568 C 383.095612 722.005005 381.392883 720.923096 380.984924 719.184814 L 373.446716 688.393555 L 312.130096 696.410645 L 301.470154 729.631958 C 301.062195 731.40564 299.607758 732.771362 297.798584 733.055176 L 250.068436 739.263062 Z M 325.85849 652.866394 L 363.460785 647.900024 L 348.189301 585.164429 L 347.604004 585.235352 L 325.85849 652.866394 Z"></path>
    <path id="path5" fill="#ffffff" stroke="none" d="M 476.729034 706.662598 L 485.597504 511.3255 C 485.473328 509.640442 486.714935 508.168274 488.399963 508.026428 L 531.784485 502.350586 C 533.717896 502.102234 534.604736 502.971375 534.48053 504.940125 L 525.612061 700.277222 C 525.470154 702.263794 524.636597 703.345764 523.093445 703.540894 L 479.708832 709.216675 C 477.598114 709.500488 476.604858 708.649109 476.729034 706.662598 Z"></path>
    <path id="path6" fill="#ffffff" stroke="none" d="M 536.325134 698.876099 L 545.193665 503.53894 C 545.069458 501.853943 546.311096 500.381775 547.996094 500.239929 L 589.074951 494.86554 C 590.990479 494.493103 592.923828 495.450928 593.792969 497.189087 L 645.726685 606.324646 L 646.879639 606.164978 L 652.218506 489.562195 C 652.094299 487.877197 653.335938 486.405029 655.020935 486.263184 L 693.776184 481.22583 C 695.904602 480.942078 696.897888 481.793457 696.755981 483.744507 L 687.922974 679.063843 C 688.04718 680.748901 686.787781 682.203369 685.120544 682.362976 L 643.757935 687.772705 C 641.895569 688.198364 640.015442 687.187439 639.323669 685.413757 L 587.30127 576.295959 L 585.846802 576.491089 L 580.507996 693.093811 C 580.366028 695.080322 579.532471 696.162354 577.98938 696.357422 L 539.23407 701.394653 C 537.158875 701.696228 536.18335 700.86261 536.325134 698.876099 Z"></path>
    <path id="path7" fill="#ffffff" stroke="none" d="M 698.600647 677.662659 L 707.469177 482.3255 C 707.610962 480.35675 708.444641 479.25708 709.987793 479.061951 L 783.454224 469.448547 C 802.929382 466.929871 818.413818 469.820984 829.889587 478.086426 C 841.365417 486.369568 848.353821 500.0625 850.854675 519.182983 C 852.539673 531.918091 852.823425 548.750427 851.723755 569.680054 C 850.624084 590.60968 848.176331 606.732544 844.362976 618.013306 C 834.217407 648.361206 810.999756 665.903076 774.7099 670.638794 L 701.243469 680.252258 C 699.345581 680.482849 698.45874 679.613708 698.600647 677.662659 Z M 751.119751 629.293945 L 766.444519 627.289673 C 775.312988 626.13678 782.177185 623.813232 787.001587 620.336853 C 791.84375 616.860352 795.533081 611.326416 798.069458 603.734985 C 800.215637 597.580261 801.723267 586.672058 802.627869 571.028076 C 803.532471 555.384094 803.532471 544.014709 802.627869 536.902161 C 801.475037 528.033691 798.406433 521.914429 793.457886 518.544434 C 788.509216 515.174377 780.98877 514.14563 770.931946 515.493652 L 756.174744 517.409241 C 755.412109 517.515686 754.897766 518.171936 754.667175 519.378052 L 749.718506 627.768616 C 749.683105 628.921509 750.144287 629.418152 751.119751 629.293945 L 751.119751 629.293945 Z"></path>
    <path id="path8" fill="#ffffff" stroke="none" d="M 854.792297 657.229675 L 863.660767 461.892639 C 863.536621 460.207581 864.778137 458.735413 866.463135 458.593506 L 909.847778 452.917664 C 911.781067 452.669373 912.667908 453.538452 912.543823 455.507263 L 903.675354 650.84436 C 903.533447 652.830872 902.699768 653.912903 901.156616 654.107971 L 857.718872 659.766052 C 855.625916 660.049866 854.650391 659.216187 854.792297 657.229675 Z"></path>
    <path id="path9" fill="#ffffff" stroke="none" d="M 914.317566 649.425415 L 923.239197 454.088318 C 923.381104 452.119507 924.214661 451.019836 925.757813 450.824707 L 1050.147095 434.559875 C 1052.080444 434.311584 1052.967285 435.180725 1052.84314 437.149536 L 1051.175903 473.84729 C 1051.300049 475.532288 1050.058472 477.004456 1048.373413 477.146362 L 971.714294 487.203186 C 970.862976 487.185486 970.153442 487.877197 970.153442 488.728577 C 970.153442 488.870483 970.171204 489.030151 970.206604 489.154297 L 968.59259 521.71936 C 968.362 522.925415 968.911865 523.439819 970.259888 523.262451 L 1032.74707 515.085754 C 1034.66272 514.837402 1035.585083 515.706482 1035.443237 517.675293 L 1033.98877 553.752258 C 1034.041992 555.526001 1032.67627 557.015869 1030.902466 557.104614 L 968.131409 565.316772 C 967.173645 565.440918 966.659241 566.097168 966.62384 567.285583 L 964.938782 601.624329 C 965.09845 602.777222 965.648315 603.291565 966.606079 603.167419 L 1042.963623 593.18158 C 1044.896973 592.933228 1045.783813 593.802307 1045.659668 595.771118 L 1043.992432 632.468872 C 1044.116577 634.15387 1042.857178 635.608337 1041.189941 635.767944 L 917.102173 651.997314 C 915.133362 652.281067 914.211121 651.411987 914.317566 649.425415 Z"></path>
    <g id="Rectngulo1">
      <path id="path10" fill="#ffffff" stroke="none" d="M 122.129372 352.216431 L 1061.956909 227.639282 L 1067.133301 266.690308 L 127.305717 391.267517 Z"></path>
    </g>
    <g id="Rectngulo1copia">
      <path id="path11" fill="#ffffff" stroke="none" d="M 127.171158 932.889648 L 1066.998779 808.3125 L 1072.175171 847.363525 L 132.347504 971.940735 Z"></path>
    </g>
  </g>
</svg>
